<?xml version="1.0" encoding="utf-8"?>
<!-- Generator: Adobe Illustrator 27.5.0, SVG Export Plug-In . SVG Version: 6.00 Build 0)  -->
<svg version="1.1" xmlns="http://www.w3.org/2000/svg" xmlns:xlink="http://www.w3.org/1999/xlink" x="0px" y="0px"
	 viewBox="0 0 500 500" style="enable-background:new 0 0 500 500;" xml:space="preserve">
<g id="BACKGROUND">
	<path style="fill:#F3EDFF;" d="M403.815,185.822c37.932,82.814-3.953,158.519-71.257,194.224
		c-57.866,30.698-159.254,15.659-215.033-26.485c-56.754-42.881-63.609-88.57-28.607-137.02
		c48.779-67.52,34.978-109.254,107.926-140.207c39.851-16.909,84.921-5.042,109.716,23.925
		C338.653,137.752,385.029,144.807,403.815,185.822z"/>
</g>
<g id="OBJECTS">
	<g>
		<g>
			<path style="fill:#C9CFF2;" d="M59.382,195.184c0,0-5.235,28.456,23.234,38.643C82.616,233.827,87.317,205.88,59.382,195.184z"/>
			<path style="fill:#C9CFF2;" d="M54.588,241.794c0,0,12.005,26.326,41.176,18.374C95.764,260.168,83.615,234.566,54.588,241.794z"
				/>
			<path style="fill:#C9CFF2;" d="M63.834,272.194c0,0,16.09,24.047,43.599,11.498C107.433,283.693,91.316,260.383,63.834,272.194z"
				/>
			<path style="fill:#C9CFF2;" d="M104.728,216.097c0,0-22.866,17.729-8.428,44.295C96.299,260.392,118.428,242.689,104.728,216.097
				z"/>
			<path style="fill:#C9CFF2;" d="M119.838,246.784c0,0-22.866,17.729-8.428,44.295C111.41,291.079,133.539,273.376,119.838,246.784
				z"/>
			<path style="fill:none;stroke:#C9CFF2;stroke-miterlimit:10;" d="M71.303,213.516c0,0,43.584,77.196,64.638,137.032"/>
			<path style="fill:#D4DAFF;" d="M136.398,165.004c0,0-24.612,134.942,29.23,178.015s56.019,8.276,56.019,8.276
				S217.827,206.155,136.398,165.004z"/>
			<path style="fill:none;stroke:#FFFFFF;stroke-linecap:round;stroke-miterlimit:10;" d="M136.862,164.74
				c0,0,43.814,194.034,74.652,222.945"/>
			<path style="fill:#C9CFF2;" d="M34.243,292.347c0,0,29.993,88.784,82.182,98.525c52.189,9.742,55.254-21.498,55.254-21.498
				S94.703,295.422,34.243,292.347z"/>
			<path style="fill:none;stroke:#FFFFFF;stroke-linecap:round;stroke-miterlimit:10;" d="M31.937,289.421
				c0,0,103.632,98.521,135.061,106.982"/>
		</g>
		<g>
			<path style="fill:#C9CFF2;" d="M431.73,195.184c0,0,5.234,28.456-23.234,38.643C408.496,233.827,403.795,205.88,431.73,195.184z"
				/>
			<path style="fill:#C9CFF2;" d="M436.524,241.794c0,0-12.005,26.326-41.176,18.374
				C395.347,260.168,407.497,234.566,436.524,241.794z"/>
			<path style="fill:#C9CFF2;" d="M427.278,272.194c0,0-16.09,24.047-43.599,11.498
				C383.679,283.693,399.795,260.383,427.278,272.194z"/>
			<path style="fill:#C9CFF2;" d="M386.384,216.097c0,0,22.866,17.729,8.428,44.295
				C394.813,260.392,372.684,242.689,386.384,216.097z"/>
			<path style="fill:#C9CFF2;" d="M371.273,246.784c0,0,22.866,17.729,8.428,44.295
				C379.702,291.079,357.573,273.376,371.273,246.784z"/>
			<path style="fill:none;stroke:#C9CFF2;stroke-miterlimit:10;" d="M419.808,213.516c0,0-43.584,77.196-64.638,137.032"/>
			<path style="fill:#D4DAFF;" d="M334.452,335.543c-53.84,43.08-76.45,9.16-76.45,9.16s24.95-89.63,72.59-142.51l11.9,14.92
				l-4.77-22.38c9.42-9.26,19.64-16.99,30.65-22.33C368.372,172.403,388.292,292.473,334.452,335.543z"/>
			<path style="fill:none;stroke:#FFFFFF;stroke-linecap:round;stroke-miterlimit:10;" d="M368.323,172.52
				c0,0-57.887,186.254-88.726,215.165"/>
			<path style="fill:#C9CFF2;" d="M456.869,292.347c0,0-29.993,88.784-82.182,98.525c-52.189,9.742-55.254-21.498-55.254-21.498
				S396.408,295.422,456.869,292.347z"/>
			<path style="fill:none;stroke:#FFFFFF;stroke-linecap:round;stroke-miterlimit:10;" d="M456.234,292.323
				c0,0-100.691,95.619-132.12,104.08"/>
		</g>
	</g>
	<g>
		<path style="fill:#294385;" d="M247.07,198.88v168.68l-57.37-16.44l2.69-8.67l1.22-51.31c-0.33,0.8-3.44,5-6.81,9.45
			c-5.83,7.68-13.92,13.34-23.14,16.17c-13.4,4.11-31.71,9.85-32.33,10.68l-16.11-28.41l42.3-18.93l19.18-39.73
			c3.78-8.17,9.51-15.17,16.59-20.44c4.42-3.29,9.35-5.91,14.67-7.72l14.84-5.06L247.07,198.88z"/>
		<g>
			<g>
				<path style="fill:#EF9B74;" d="M115.198,299.2l-15.825-12.188c-1.108-1.498-3.029-2.151-4.82-1.639l0,0
					c-2.502,0.715-3.866,3.407-2.964,5.847l7.923,9.059c0.716,1.937-1.097,2.969-2.87,3.812l-8.86,3.69
					c-0.847,0.353-1.698-0.493-1.352-1.342l3.37-8.262c0.254-0.888,0.36-1.822,0.221-2.734c-0.118-0.774-0.413-1.605-1.083-2.141
					l0,0c-2.524-2.02-6.24-1.421-8.003,1.289l-5.451,8.384c-3.246,4.992-2.192,11.631,2.44,15.373l9.926,8.017
					c6.225,5.028,14.798,6.001,21.992,2.496l13.191-6.283L115.198,299.2z"/>
				<path style="fill:#EF9B74;" d="M131.26,327.3l-36.42,12.79c-5.03,2.51-10.99,2.08-15.58-1.07c-0.26-0.17-0.51-0.36-0.76-0.55
					l-5.41-3.86c-2.73-2.12-2.54-6.31,0.38-8.17l41.73-27.24l15.5,27.13L131.26,327.3z"/>
			</g>
			
				<line style="fill:none;stroke:#21426B;stroke-linecap:round;stroke-miterlimit:10;" x1="96.216" y1="327.011" x2="74.606" y2="335.588"/>
			
				<line style="fill:none;stroke:#21426B;stroke-linecap:round;stroke-miterlimit:10;" x1="81.653" y1="320.967" x2="91.984" y2="316.263"/>
		</g>
		<path style="fill:#EF8B5D;" d="M271.199,165.316c-1.862,5.742,0.771,11.741,5.88,13.397s10.761-1.656,12.623-7.398
			c1.862-5.742-0.771-11.741-5.88-13.397S273.061,159.573,271.199,165.316z"/>
		<path style="fill:#EF8B5D;" d="M224.635,165.316c1.862,5.742-0.771,11.741-5.88,13.397c-5.109,1.657-10.761-1.656-12.623-7.398
			c-1.862-5.742,0.771-11.741,5.88-13.397C217.122,156.261,222.774,159.573,224.635,165.316z"/>
		<circle style="fill:none;stroke:#B86B47;stroke-linecap:round;stroke-miterlimit:10;" cx="216.147" cy="168.609" r="4.519"/>
		<path style="fill:none;stroke:#B86B47;stroke-linecap:round;stroke-miterlimit:10;" d="M284.114,168.609
			c0,2.496-2.023,4.519-4.519,4.519c-2.496,0-4.519-2.023-4.519-4.519s2.023-4.519,4.519-4.519
			C282.091,164.09,284.114,166.113,284.114,168.609z"/>
		<path style="fill:#294385;" d="M378.66,299.03l-16.11,28.41c-0.62-0.83-18.93-6.57-32.33-10.68c-9.22-2.83-17.31-8.49-23.14-16.17
			c-3.23-4.26-6.21-8.28-6.75-9.33c0,0-0.01,0-0.01-0.01c-0.02-0.04-0.04-0.08-0.05-0.11l1.22,51.31l2.69,8.67l-57.36,16.44V198.88
			l39.1,13.33c5.13,1.75,9.91,4.25,14.21,7.37c7.29,5.32,13.19,12.44,17.05,20.79l19.18,39.73L378.66,299.03z"/>
		<path style="fill:#EF9B74;" d="M264.162,173.233v33.035c0,9.275-7.519,16.793-16.804,16.793c-9.274,0-16.793-7.519-16.793-16.793
			v-33.035H264.162z"/>
		<path style="fill:#EF8B5D;" d="M264.162,173.233v30.84c-3.512,1.508-7.395,2.341-11.458,2.341h-9.972
			c-4.345,0-8.464-0.945-12.167-2.656v-30.525H264.162z"/>
		<path style="fill:#EF9B74;" d="M278.863,150.773v23.943c0,14.687-11.895,26.582-26.582,26.582h-9.093
			c-14.687,0-26.582-11.895-26.582-26.582v-23.943c0-14.235,11.536-25.771,25.771-25.771h10.715c1.324,0,2.627,0.103,3.89,0.298
			C269.37,127.168,278.863,137.862,278.863,150.773z"/>
		<path style="fill:none;stroke:#262347;stroke-linecap:round;stroke-miterlimit:10;" d="M237.598,158.876
			c0,3.073-2.491,5.564-5.564,5.564s-5.564-2.491-5.564-5.564"/>
		<path style="fill:none;stroke:#262347;stroke-linecap:round;stroke-miterlimit:10;" d="M270.409,158.876
			c0,3.073-2.491,5.564-5.564,5.564s-5.564-2.491-5.564-5.564"/>
		<path style="fill:none;stroke:#CC7045;stroke-linecap:round;stroke-miterlimit:10;" d="M253.298,177.832
			c0,3.073-2.491,5.564-5.564,5.564s-5.564-2.491-5.564-5.564"/>
		<path style="fill:#EF8B5D;" d="M238.253,170.756c0,1.935-2.661,3.504-5.943,3.504s-5.943-1.569-5.943-3.504
			c0-1.935,2.661-3.504,5.943-3.504S238.253,168.821,238.253,170.756z"/>
		<path style="fill:#EF8B5D;" d="M269.878,170.756c0,1.935-2.661,3.504-5.943,3.504s-5.943-1.569-5.943-3.504
			c0-1.935,2.661-3.504,5.943-3.504S269.878,168.821,269.878,170.756z"/>
		<ellipse style="fill:#E6E9FF;" cx="249.511" cy="408.231" rx="176.666" ry="29.881"/>
		<path style="fill:#EF8B5D;" d="M172.75,336.74l-13.04,52.33l-37.39-4.68c-15.3-1.92-25.79-16.37-22.87-31.51
			c2.44-12.68,13.54-21.62,26.15-21.62c1.07,0,2.15,0.06,3.23,0.19L172.75,336.74z"/>
		<path style="fill:#EF8B5D;" d="M371.74,384.39l-33.97,4.25L319,337.02l46.24-5.57c1.08-0.13,2.16-0.19,3.23-0.19
			c12.61,0,23.71,8.94,26.15,21.62C397.54,368.02,387.04,382.47,371.74,384.39z"/>
		<path style="fill:#193150;" d="M337.77,388.64l-90.5,11.33l-0.23-5.64l-0.24,5.64l-87.09-10.9l13.04-52.33l62.22,7.5
			c8.01,0.97,16.12,0.97,24.13,0l59.9-7.22L337.77,388.64z"/>
		<path style="fill:#193150;" d="M225.778,112.253h-5.307c-3.821,0-6.918,3.097-6.918,6.918v38.306l3.117,0.251
			c2.166-8.019,8.117-5.436,8.117-11.833L225.778,112.253z"/>
		<path style="fill:#193150;" d="M269.513,112.253h5.307c3.821,0,6.918,3.097,6.918,6.918v38.356l-2.894,0.29
			c-0.39-9.16-8.226-7.325-8.226-13.722L269.513,112.253z"/>
		<path style="fill:#193150;" d="M277.06,128.9c-31.96,16.62-58.8,0-58.8,0v-15.62c0-0.2,0.01-0.4,0.03-0.6
			c0.3-3.38,3.14-6.02,6.59-6.02h45.56c3.66,0,6.62,2.96,6.62,6.62C277.06,113.28,281.83,126.41,277.06,128.9z"/>
		<g>
			<g>
				<path style="fill:#EF9B74;" d="M378.684,299.2l15.825-12.188c1.108-1.498,3.029-2.151,4.82-1.639l0,0
					c2.502,0.715,3.866,3.407,2.964,5.847l-7.922,9.059c-0.716,1.937,1.097,2.969,2.87,3.812l8.86,3.69
					c0.847,0.353,1.698-0.493,1.352-1.342l-3.37-8.262c-0.254-0.888-0.36-1.822-0.221-2.734c0.118-0.774,0.413-1.605,1.083-2.141
					l0,0c2.524-2.02,6.24-1.421,8.003,1.289l5.451,8.384c3.246,4.992,2.193,11.631-2.44,15.373l-9.927,8.017
					c-6.225,5.028-14.798,6.001-21.992,2.496l-13.191-6.283L378.684,299.2z"/>
				<path style="fill:#EF9B74;" d="M378.684,299.2l41.732,27.239c2.913,1.862,3.107,6.046,0.378,8.169l-5.408,3.865
					c-4.681,3.641-11.036,4.27-16.34,1.618l-36.425-12.789L378.684,299.2z"/>
			</g>
			
				<line style="fill:none;stroke:#21426B;stroke-linecap:round;stroke-miterlimit:10;" x1="397.665" y1="327.011" x2="419.275" y2="335.588"/>
			
				<line style="fill:none;stroke:#21426B;stroke-linecap:round;stroke-miterlimit:10;" x1="412.228" y1="320.967" x2="401.897" y2="316.263"/>
		</g>
		<line style="fill:none;" x1="159.71" y1="389.07" x2="152.8" y2="416.79"/>
		<path style="fill:#1D3A5E;" d="M319,337.02c0,0-38.19,13.22-69.73,14.04c-31.53,0.82-76.52-14.32-76.52-14.32l62.22,7.5
			c8.01,0.97,16.12,0.97,24.13,0L319,337.02z"/>
		<line style="fill:none;" x1="345.66" y1="410.35" x2="337.77" y2="388.64"/>
		<g>
			<path style="fill:#EF8B5D;" d="M300.827,386.166l-56.368,0.104l-8.882,36.839l26.714,4.92
				c19.012,3.501,37.804-7.114,44.617-25.206l1.924-5.109C310.938,392.124,306.8,386.155,300.827,386.166z"/>
			<path style="fill:#EF9B74;" d="M244.46,386.265l-0.4,1.65l-8.14,33.77l-0.34,1.42l-2.59-0.88l-54.78-18.49l-61.49-20.76
				c-14.61-4.93-22-21.19-16.12-35.44c4.23-10.23,14.13-16.5,24.65-16.5c2.8,0,5.63,0.44,8.42,1.37l96.42,46.88l13.47,6.54
				L244.46,386.265z"/>
			<path style="fill:#EF9B74;" d="M360.401,332.405L249.61,386.27l8.882,36.839l118.856-40.133
				c14.609-4.933,22.002-21.19,16.118-35.443v0C388.124,334.593,373.685,327.987,360.401,332.405z"/>
			<path style="fill:#EF8B5D;" d="M244.06,387.915l-8.14,33.77l-2.93,0.54l-54.78-18.49c-1.24-2.1-2.32-4.33-3.2-6.68l-2.07-5.48
				c-2.26-6,2.18-12.4,8.59-12.39l48.56,0.1l13.47,6.54L244.06,387.915z"/>
			<path style="fill:#EF9B74;" d="M193.242,386.166l56.368,0.104l8.882,36.839l-26.714,4.92
				c-19.012,3.501-37.804-7.114-44.617-25.206l-1.924-5.109C183.13,392.124,187.268,386.155,193.242,386.166z"/>
			
				<line style="fill:none;stroke:#21426B;stroke-linecap:round;stroke-miterlimit:10;" x1="186.743" y1="401.037" x2="204.813" y2="399.756"/>
			
				<line style="fill:none;stroke:#21426B;stroke-linecap:round;stroke-miterlimit:10;" x1="191.331" y1="411.027" x2="204.9" y2="409.257"/>
			
				<line style="fill:none;stroke:#21426B;stroke-linecap:round;stroke-miterlimit:10;" x1="198.518" y1="419.378" x2="208.638" y2="417.095"/>
		</g>
		<path style="fill:#193150;" d="M378.66,299.03l-0.75,1.32l-15.36,27.09c-0.62-0.83-18.93-6.57-32.33-10.68
			c-9.22-2.83-17.31-8.49-23.14-16.17c-3.23-4.26-6.21-8.28-6.75-9.33c0,0-0.01,0-0.01-0.01c-0.02-0.08-0.03-0.17-0.05-0.25
			c-4.27-21.69-2.69-49.93-0.96-65.17c0.28-2.45,0.56-4.56,0.82-6.25c7.29,5.32,13.19,12.44,17.05,20.79l19.18,39.73L378.66,299.03z
			"/>
		<path style="fill:#193150;" d="M193.71,291c-0.02,0.08-0.03,0.17-0.05,0.25c0,0.01-0.01,0.01-0.01,0.01
			c-0.54,1.05-3.52,5.07-6.75,9.33c-5.83,7.68-13.92,13.34-23.14,16.17c-13.4,4.11-31.71,9.85-32.33,10.68l-13.78-24.3l-2.33-4.11
			l42.3-18.93l19.18-39.73c3.86-8.35,9.76-15.47,17.05-20.79c0.32,2.09,0.68,4.81,1.01,8.01C196.51,243.16,197.82,270.12,193.71,291
			z"/>
		<path style="fill:#1D3A5E;" d="M194.86,227.59c-16.64,16.75-30.1,57.76-30.1,57.76l-47.11,17.79l-2.33-4.11l42.3-18.93
			l19.18-39.73c3.86-8.35,9.76-15.47,17.05-20.79C194.17,221.67,194.53,224.39,194.86,227.59z"/>
		<path style="fill:#1D3A5E;" d="M378.66,299.03l-0.75,1.32l-1.93,3.14l-43.96-18.6c0,0-12.12-25.92-20.57-42.26
			c-4.21-8.14-8.7-13.49-12.14-16.8c0.28-2.45,0.56-4.56,0.82-6.25c7.29,5.32,13.19,12.44,17.05,20.79l19.18,39.73L378.66,299.03z"
			/>
		<path style="fill:#3353A6;" d="M222.88,207.49c0.67,5.81-28.02,20.1-28.02,20.1s-0.93-3.77-1.57-7.66
			c4.42-3.29,9.35-5.91,14.67-7.72l14.84-5.06C222.84,207.26,222.87,207.37,222.88,207.49z"/>
		<path style="fill:#EF8B5D;" d="M131.26,327.3l-36.42,12.79c-5.03,2.51-10.99,2.08-15.58-1.07l47.31-19.03l4.13,6.34L131.26,327.3z
			"/>
		<path style="fill:#EF8B5D;" d="M362.591,327.3l36.42,12.79c5.03,2.51,10.99,2.08,15.58-1.07l-47.31-19.03l-4.13,6.34
			L362.591,327.3z"/>
		
			<line style="fill:none;stroke:#262347;stroke-linecap:round;stroke-miterlimit:10;" x1="236.555" y1="149.24" x2="227.482" y2="149.24"/>
		
			<line style="fill:none;stroke:#262347;stroke-linecap:round;stroke-miterlimit:10;" x1="269.127" y1="149.24" x2="260.054" y2="149.24"/>
		<path style="fill:#1D3A5E;" d="M265.68,106.66c-0.92,3.47-4.08,6.02-7.83,6.02h-39.56c0.3-3.38,3.14-6.02,6.59-6.02H265.68z"/>
	</g>
	<g>
		<g>
			<path style="fill:none;stroke:#262347;stroke-linecap:round;stroke-miterlimit:10;" d="M317.173,85.047
				c-1.486,1.641-2.816,2.972-4.458,4.458c-1.641-1.486-2.972-2.816-4.458-4.458c1.486-1.641,2.816-2.972,4.458-4.458
				C314.357,82.075,315.688,83.406,317.173,85.047z"/>
		</g>
		<g>
			<path style="fill:none;stroke:#262347;stroke-linecap:round;stroke-miterlimit:10;" d="M173.369,143.277
				c-1.486,1.641-2.816,2.972-4.458,4.458c-1.641-1.486-2.972-2.816-4.458-4.458c1.486-1.641,2.817-2.972,4.458-4.458
				C170.553,140.305,171.883,141.636,173.369,143.277z"/>
		</g>
		<path style="fill:none;stroke:#262347;stroke-linecap:round;stroke-miterlimit:10;" d="M319.982,141.474
			c0,1.954-1.584,3.538-3.538,3.538c-1.954,0-3.538-1.584-3.538-3.538c0-1.954,1.584-3.538,3.538-3.538
			C318.397,137.936,319.982,139.52,319.982,141.474z"/>
	</g>
</g>
</svg>
