<?xml version="1.0" encoding="utf-8"?>
<!-- Generator: Adobe Illustrator 27.5.0, SVG Export Plug-In . SVG Version: 6.00 Build 0)  -->
<svg version="1.1" xmlns="http://www.w3.org/2000/svg" xmlns:xlink="http://www.w3.org/1999/xlink" x="0px" y="0px"
	 viewBox="0 0 500 500" style="enable-background:new 0 0 500 500;" xml:space="preserve">
<g id="Background_Complete">
	<g>
		<g>
			<rect y="382.398" style="fill:#EBEBEB;" width="500" height="0.25"/>
			<path style="fill:#EBEBEB;" d="M237.014,337.8H43.915c-3.147,0-5.708-2.561-5.708-5.708V60.66c0-3.147,2.561-5.708,5.708-5.708
				h193.099c3.146,0,5.707,2.561,5.707,5.708v271.432C242.721,335.239,240.16,337.8,237.014,337.8z M43.915,55.203
				c-3.01,0-5.458,2.448-5.458,5.458v271.432c0,3.01,2.448,5.458,5.458,5.458h193.099c3.009,0,5.457-2.448,5.457-5.458V60.66
				c0-3.009-2.448-5.458-5.457-5.458H43.915z"/>
			<path style="fill:#EBEBEB;" d="M453.31,337.8H260.212c-3.147,0-5.707-2.561-5.707-5.708V60.66c0-3.147,2.561-5.708,5.707-5.708
				H453.31c3.148,0,5.708,2.561,5.708,5.708v271.432C459.019,335.239,456.458,337.8,453.31,337.8z M260.212,55.203
				c-3.009,0-5.457,2.448-5.457,5.458v271.432c0,3.01,2.448,5.458,5.457,5.458H453.31c3.01,0,5.458-2.448,5.458-5.458V60.66
				c0-3.009-2.448-5.458-5.458-5.458H260.212z"/>
		</g>
		<g>
			<rect x="52.459" y="398.494" style="fill:#EBEBEB;" width="33.207" height="0.25"/>
			<rect x="146.333" y="397.501" style="fill:#EBEBEB;" width="54.101" height="0.25"/>
			<rect x="86.667" y="389.208" style="fill:#EBEBEB;" width="19.108" height="0.25"/>
			<rect x="435.118" y="390.888" style="fill:#EBEBEB;" width="14.783" height="0.25"/>
			<rect x="391.471" y="390.888" style="fill:#EBEBEB;" width="34.743" height="0.25"/>
			<rect x="267.333" y="395.111" style="fill:#EBEBEB;" width="45.449" height="0.25"/>
		</g>
	</g>
	<g>
		<g>
			<g>
				<g>
					<rect x="154.699" y="199.43" style="fill:#F0F0F0;" width="12.073" height="176.853"/>
					<rect x="157.885" y="376.282" style="fill:#F0F0F0;" width="66.88" height="6.101"/>
					
						<rect x="166.773" y="199.43" transform="matrix(-1 -1.224647e-16 1.224647e-16 -1 394.723 575.7119)" style="fill:#F5F5F5;" width="61.178" height="176.853"/>
					
						<rect x="173.295" y="291.519" transform="matrix(-1 -1.224647e-16 1.224647e-16 -1 394.723 614.6176)" style="fill:#F0F0F0;" width="48.132" height="31.579"/>
					
						<rect x="173.295" y="332.851" transform="matrix(-1 -1.224647e-16 1.224647e-16 -1 394.723 697.281)" style="fill:#F0F0F0;" width="48.132" height="31.579"/>
					<path style="fill:#F5F5F5;" d="M203.97,309.474h-13.217c-0.87,0-1.583-0.712-1.583-1.583v-1.165
						c0-0.87,0.712-1.583,1.583-1.583h13.217c0.87,0,1.583,0.712,1.583,1.583v1.165C205.553,308.762,204.841,309.474,203.97,309.474
						z"/>
					<path style="fill:#F5F5F5;" d="M203.97,350.806h-13.217c-0.87,0-1.583-0.712-1.583-1.583v-1.165
						c0-0.87,0.712-1.583,1.583-1.583h13.217c0.87,0,1.583,0.712,1.583,1.583v1.165C205.553,350.094,204.841,350.806,203.97,350.806
						z"/>
					
						<rect x="173.295" y="209.182" transform="matrix(-1 -1.224647e-16 1.224647e-16 -1 394.723 449.9438)" style="fill:#F0F0F0;" width="48.132" height="31.579"/>
					
						<rect x="173.295" y="250.188" transform="matrix(-1 -1.224647e-16 1.224647e-16 -1 394.723 531.954)" style="fill:#F0F0F0;" width="48.132" height="31.579"/>
					<path style="fill:#F5F5F5;" d="M203.97,227.137h-13.217c-0.87,0-1.583-0.712-1.583-1.583v-1.165
						c0-0.87,0.712-1.583,1.583-1.583h13.217c0.87,0,1.583,0.712,1.583,1.583v1.165C205.553,226.425,204.841,227.137,203.97,227.137
						z"/>
					<path style="fill:#F5F5F5;" d="M203.97,268.142h-13.217c-0.87,0-1.583-0.712-1.583-1.583v-1.165
						c0-0.871,0.712-1.583,1.583-1.583h13.217c0.87,0,1.583,0.712,1.583,1.583v1.165C205.553,267.43,204.841,268.142,203.97,268.142
						z"/>
				</g>
			</g>
			<g>
				<g>
					<rect x="63.589" y="199.43" style="fill:#F0F0F0;" width="36.235" height="176.853"/>
					<rect x="67.297" y="376.282" style="fill:#F0F0F0;" width="90.52" height="6.101"/>
					
						<rect x="99.824" y="199.43" transform="matrix(-1 -1.224647e-16 1.224647e-16 -1 260.8266 575.7119)" style="fill:#F5F5F5;" width="61.178" height="176.853"/>
					<g>
						<path style="fill:#E0E0E0;" d="M155.776,183.639c0,8.728-7.077,15.791-15.791,15.791c-8.715,0-15.791-7.063-15.791-15.791
							c0-3.559,1.177-6.82,3.166-9.472h25.25C154.598,176.819,155.776,180.08,155.776,183.639z"/>
						<path style="fill:#F0F0F0;" d="M132.227,185.841c0,7.51-6.09,13.588-13.588,13.588c-7.499,0-13.588-6.078-13.588-13.588
							c0-3.063,1.013-5.868,2.724-8.151h21.728C131.214,179.973,132.227,182.779,132.227,185.841z"/>
					</g>
					
						<rect x="106.347" y="291.519" transform="matrix(-1 -1.224647e-16 1.224647e-16 -1 260.8267 614.6176)" style="fill:#F0F0F0;" width="48.132" height="31.579"/>
					
						<rect x="106.347" y="332.851" transform="matrix(-1 -1.224647e-16 1.224647e-16 -1 260.8267 697.281)" style="fill:#F0F0F0;" width="48.132" height="31.579"/>
					<path style="fill:#F5F5F5;" d="M137.022,309.474h-13.217c-0.87,0-1.583-0.712-1.583-1.583v-1.165
						c0-0.87,0.712-1.583,1.583-1.583h13.217c0.87,0,1.583,0.712,1.583,1.583v1.165
						C138.605,308.762,137.893,309.474,137.022,309.474z"/>
					<path style="fill:#F5F5F5;" d="M137.022,350.806h-13.217c-0.87,0-1.583-0.712-1.583-1.583v-1.165
						c0-0.87,0.712-1.583,1.583-1.583h13.217c0.87,0,1.583,0.712,1.583,1.583v1.165
						C138.605,350.094,137.893,350.806,137.022,350.806z"/>
					
						<rect x="106.347" y="209.182" transform="matrix(-1 -1.224647e-16 1.224647e-16 -1 260.8267 449.9438)" style="fill:#F0F0F0;" width="48.132" height="31.579"/>
					
						<rect x="106.347" y="250.188" transform="matrix(-1 -1.224647e-16 1.224647e-16 -1 260.8267 531.954)" style="fill:#F0F0F0;" width="48.132" height="31.579"/>
					<path style="fill:#F5F5F5;" d="M137.022,227.137h-13.217c-0.87,0-1.583-0.712-1.583-1.583v-1.165
						c0-0.87,0.712-1.583,1.583-1.583h13.217c0.87,0,1.583,0.712,1.583,1.583v1.165
						C138.605,226.425,137.893,227.137,137.022,227.137z"/>
					<path style="fill:#F5F5F5;" d="M137.022,268.142h-13.217c-0.87,0-1.583-0.712-1.583-1.583v-1.165
						c0-0.871,0.712-1.583,1.583-1.583h13.217c0.87,0,1.583,0.712,1.583,1.583v1.165
						C138.605,267.43,137.893,268.142,137.022,268.142z"/>
				</g>
			</g>
		</g>
		<g>
			<g>
				<g>
					<g>
						<g>
							
								<rect x="95.71" y="135.711" transform="matrix(-1 -1.224647e-16 1.224647e-16 -1 316.6776 282.1888)" style="fill:#F0F0F0;" width="125.258" height="10.768"/>
							
								<ellipse transform="matrix(0.9871 -0.1602 0.1602 0.9871 -16.8065 32.956)" style="fill:#E6E6E6;" cx="196.009" cy="120.721" rx="15.095" ry="15.095"/>
							<rect x="70.78" y="135.711" style="fill:#E6E6E6;" width="24.93" height="10.768"/>
						</g>
					</g>
				</g>
				<g>
					
						<rect x="155.543" y="106.633" transform="matrix(-1 -1.224647e-16 1.224647e-16 -1 338.4056 242.3433)" style="fill:#E0E0E0;" width="27.32" height="29.078"/>
					<rect x="182.863" y="106.633" style="fill:#F0F0F0;" width="6.998" height="29.078"/>
					
						<rect x="147.094" y="98.412" transform="matrix(-1 -1.224647e-16 1.224647e-16 -1 317.6022 234.1231)" style="fill:#E0E0E0;" width="23.413" height="37.298"/>
					<rect x="170.508" y="98.412" style="fill:#EBEBEB;" width="4.766" height="37.298"/>
					
						<rect x="139.546" y="102.15" transform="matrix(-1 -1.224647e-16 1.224647e-16 -1 299.6111 237.8603)" style="fill:#E6E6E6;" width="20.519" height="33.561"/>
					<rect x="160.065" y="102.15" style="fill:#F0F0F0;" width="5.932" height="33.561"/>
					
						<rect x="126.701" y="106.633" transform="matrix(-1 -1.224647e-16 1.224647e-16 -1 280.723 242.3433)" style="fill:#F0F0F0;" width="27.32" height="29.078"/>
					<rect x="154.021" y="106.633" style="fill:#FAFAFA;" width="3.949" height="29.078"/>
				</g>
			</g>
			<g>
				<g>
					
						<rect x="126.057" y="96.391" transform="matrix(-1 -1.224647e-16 1.224647e-16 -1 270.8146 232.102)" style="fill:#E6E6E6;" width="18.7" height="39.319"/>
					<rect x="144.757" y="96.391" style="fill:#F0F0F0;" width="5.406" height="39.319"/>
					<polygon style="fill:#E6E6E6;" points="101.952,99.858 126.057,99.858 131.867,135.711 107.761,135.711 					"/>
					<polygon style="fill:#F0F0F0;" points="133.026,99.858 126.057,99.858 131.867,135.711 138.836,135.711 					"/>
					
						<rect x="90.839" y="95.077" transform="matrix(-1 -1.224647e-16 1.224647e-16 -1 208.9985 230.788)" style="fill:#EBEBEB;" width="27.32" height="40.633"/>
					<rect x="118.159" y="95.077" style="fill:#F5F5F5;" width="7.898" height="40.633"/>
				</g>
			</g>
		</g>
		<g>
			
				<rect x="285.667" y="96.391" transform="matrix(-1 -1.224647e-16 1.224647e-16 -1 714.6946 299.8045)" style="fill:#F0F0F0;" width="143.361" height="107.022"/>
			<rect x="278.84" y="96.391" style="fill:#E6E6E6;" width="6.827" height="107.022"/>
		</g>
		<g>
			<path style="fill:#E0E0E0;" d="M323.677,211.941c11.939,6.775,23.045,21.18,24.182,32.798
				c3.598-8.957,7.571-17.768,11.908-26.407c-1.227,0.878-2.639,1.676-4.267,2.382c-21.973,10.41-23.052-26.593-8.965-50.582
				c10.997,8.211,20.211,23.921,19.88,35.613c4.695-8.465,9.752-16.747,15.161-24.821c-1.327,0.725-2.836,1.345-4.542,1.849
				c-23.144,7.665-19.562-29.295-2.42-51.518c9.88,9.53,17.006,26.326,15.177,37.94c5.344-7.306,10.989-14.423,16.928-21.33
				c-13.413-3.867-0.957-27.969,14.976-38.866c5.989,15.28,5.609,40.069-10.697,39.514c-2.281,2.618-4.519,5.266-6.714,7.945
				c10.926-4.854,28.277,0.335,38.781,9.101c-15.525,14.648-45.051,29.95-47.724,6.937c-0.144-1.749-0.082-3.365,0.157-4.852
				c-5.802,7.712-11.261,15.644-16.368,23.774c10.184-6.107,27.999-3.072,39.517,4.308c-13.421,16.295-40.739,35.012-46.315,12.604
				c-0.364-1.709-0.513-3.313-0.462-4.81c-4.76,8.317-9.164,16.82-13.201,25.484c9.325-7.284,27.353-6.451,39.703-0.56
				c-11.222,17.718-35.99,39.631-44.32,18.127c-0.584-1.649-0.92-3.216-1.061-4.704c-3.679,8.816-6.987,17.781-9.918,26.872
				c8.347-8.377,26.333-9.769,39.318-5.455c-8.911,18.918-30.799,43.78-41.722,23.458c-0.008-0.016-0.016-0.031-0.023-0.047
				c-1.069-2.161-3.775-2.898-5.716-1.469l-0.632,0.465c2.462-9.342,5.312-18.572,8.54-27.668c-1.108,1.021-2.41,1.987-3.938,2.887
				C318.386,273.952,312.737,237.375,323.677,211.941z"/>
			<path style="fill:#FAFAFA;" d="M361.315,231.982c-9.801,3.909-19.853,13.829-22.052,22.712
				c-1.686-7.353-3.672-14.634-5.953-21.823c0.826,0.819,1.801,1.597,2.95,2.329c15.403,10.55,20.483-18.026,12.604-38.219
				c-9.255,5.128-18.028,16.274-19.126,25.38c-2.572-7.094-5.438-14.088-8.594-20.96c0.919,0.712,1.988,1.363,3.219,1.946
				c16.604,8.554,18.157-20.515,7.767-39.683c-8.563,6.278-15.884,18.5-15.84,27.715c-3.195-6.269-6.641-12.425-10.332-18.452
				c10.58-1.487,3.947-21.584-6.836-31.831c-6.286,11.176-8.857,30.444,3.527,31.852c1.422,2.287,2.808,4.594,4.157,6.919
				c-7.696-4.996-21.404-2.927-30.351,2.687c10.042,13.111,30.587,28.307,35.26,10.76c0.31-1.34,0.45-2.6,0.441-3.781
				c3.495,6.635,6.705,13.403,9.627,20.284c-6.991-5.885-20.801-5.539-30.355-1.113c8.262,14.151,26.745,31.747,33.542,14.996
				c0.472-1.285,0.77-2.512,0.904-3.678c2.638,6.987,4.986,14.078,7.037,21.253c-6.206-6.701-19.924-8.087-29.934-4.91
				c6.437,15.007,22.625,34.794,31.398,19.055c0.631-1.213,1.066-2.391,1.344-3.529c1.764,7.252,3.23,14.578,4.396,21.959
				c-5.341-7.438-18.771-10.545-29.079-8.663c4.552,15.677,18.225,37.427,28.82,22.897c0.008-0.011,0.015-0.023,0.023-0.034
				c1.057-1.556,3.186-1.822,4.488-0.495l0.424,0.432c-0.783-7.523-1.873-15.003-3.263-22.422c0.72,0.917,1.592,1.813,2.642,2.683
				C358.165,280.673,366.649,252.942,361.315,231.982z"/>
			<g>
				<g>
					<path style="fill:#F0F0F0;" d="M386.327,274.281c0,0-0.935,108.119-36.768,108.119c-35.833,0-36.768-108.119-36.768-108.119
						H386.327z"/>
				</g>
			</g>
		</g>
	</g>
</g>
<g id="Background_Simple" style="display:none;">
	<g style="display:inline;">
		<path style="fill:#407BFF;" d="M355.327,264.544c-11.437-16.762-12.955-39.143-20.867-57.558
			c-7.906-18.399-19.227-36.502-33.565-50.412c-35.086-34.037-71.811-17.934-110.698-6.832
			c-30.921,8.827-84.911,0.331-96.848,37.608c-12.088,37.749,15.237,87.812,33.409,120.225c16.794,29.955,46.885,81.2,85.219,80.899
			c43.749-0.344,48.476-71.194,92.829-45.592c35.433,20.453,84.185,35.871,108.012-5
			C438.082,294.547,374.208,292.215,355.327,264.544z"/>
		<path style="opacity:0.9;fill:#FFFFFF;" d="M355.327,264.544c-11.437-16.762-12.955-39.143-20.867-57.558
			c-7.906-18.399-19.227-36.502-33.565-50.412c-35.086-34.037-71.811-17.934-110.698-6.832
			c-30.921,8.827-84.911,0.331-96.848,37.608c-12.088,37.749,15.237,87.812,33.409,120.225c16.794,29.955,46.885,81.2,85.219,80.899
			c43.749-0.344,48.476-71.194,92.829-45.592c35.433,20.453,84.185,35.871,108.012-5
			C438.082,294.547,374.208,292.215,355.327,264.544z"/>
	</g>
</g>
<g id="Shadow_1_">
	<ellipse id="_x3C_Path_x3E__206_" style="fill:#F5F5F5;" cx="250" cy="416.238" rx="193.889" ry="11.323"/>
</g>
<g id="Character_1">
	<g>
		<g>
			<g>
				<path style="fill:#407BFF;" d="M96.893,315.463c-1.827,0-3.284,1.525-3.201,3.35l0.126,2.768c0.375,2.44,2.644,4.42,5.084,4.42
					h0.931l0.92,3.072c0.621,2.044,2.504,3.446,4.634,3.446h77.38c0-2.997-1.316-5.662-3.393-7.492
					c0.01-0.075,0.043-0.15,0.053-0.225l0.427-4.971c0.202-2.35-1.651-4.368-4.009-4.368H96.893z"/>
				<path style="opacity:0.5;" d="M96.893,315.463c-1.827,0-3.284,1.525-3.201,3.35l0.126,2.768c0.375,2.44,2.644,4.42,5.084,4.42
					h0.931l0.92,3.072c0.621,2.044,2.504,3.446,4.634,3.446h77.38c0-2.997-1.316-5.662-3.393-7.492
					c0.01-0.075,0.043-0.15,0.053-0.225l0.427-4.971c0.202-2.35-1.651-4.368-4.009-4.368H96.893z"/>
			</g>
			<g>
				<g>
					<polygon style="fill:#407BFF;" points="128.594,411.23 125.194,411.23 129.847,332.515 133.247,332.515 					"/>
					<polygon style="opacity:0.5;" points="128.594,411.23 125.194,411.23 129.847,332.515 133.247,332.515 					"/>
				</g>
				<g>
					<polygon style="fill:#407BFF;" points="179.164,411.23 182.564,411.23 177.911,332.515 174.512,332.515 					"/>
					<polygon style="opacity:0.5;" points="179.164,411.23 182.564,411.23 177.911,332.515 174.512,332.515 					"/>
				</g>
				<g>
					<polygon style="fill:#407BFF;" points="107.318,411.23 103.918,411.23 108.571,332.515 111.971,332.515 					"/>
					<polygon style="opacity:0.5;" points="107.318,411.23 103.918,411.23 108.571,332.515 111.971,332.515 					"/>
				</g>
				<g>
					<polygon style="fill:#407BFF;" points="157.888,411.23 161.288,411.23 156.636,332.515 153.236,332.515 					"/>
					<polygon style="opacity:0.5;" points="157.888,411.23 161.288,411.23 156.636,332.515 153.236,332.515 					"/>
				</g>
			</g>
		</g>
		<g>
			<g>
				<g>
					<g>
						<polygon style="fill:#FFC3BD;" points="195.221,404.042 203.371,404.096 204.678,385.289 196.527,385.235 						"/>
						<path style="fill:#263238;" d="M204.139,401.876l-9.142-0.06c-0.333-0.002-0.585,0.227-0.607,0.552l-0.491,7.23
							c-0.051,0.75,0.648,1.465,1.415,1.456c3.183-0.034,4.705-0.211,8.725-0.185c2.473,0.016,10.988,0.142,14.38-0.262
							c3.317-0.395,2.896-3.746,1.422-3.879c-6.607-0.595-12.018-2.524-14.304-4.344
							C205.125,402.057,204.626,401.879,204.139,401.876z"/>
						<g>
							<polygon style="opacity:0.2;" points="196.525,385.24 204.679,385.294 204.001,394.988 195.848,394.934 							"/>
						</g>
						<g>
							<path style="fill:#407BFF;" d="M155.446,283.814c0,0,60.132,3.099,60.222,26.435c0.129,33.542-7.689,79.412-7.689,79.412
								l-14.889-0.687c0,0-4.049-46.319-3.749-72.5c-16.44-4.718-55.059,3.018-60.091-10.623c-4.116-11.16-1.89-22.037-1.89-22.037
								H155.446z"/>
							<path style="opacity:0.2;fill:#FFFFFF;" d="M155.446,283.814c0,0,60.132,3.099,60.222,26.435
								c0.129,33.542-7.689,79.412-7.689,79.412l-14.889-0.687c0,0-4.049-46.319-3.749-72.5
								c-16.44-4.718-55.059,3.018-60.091-10.623c-4.116-11.16-1.89-22.037-1.89-22.037H155.446z"/>
						</g>
						<polygon style="fill:#407BFF;" points="191.297,393.191 208.536,392.951 209.555,386.41 191.878,386.132 						"/>
						<path style="fill:#407BFF;" d="M207.014,403.313c-0.751-0.005-1.582-0.165-2.167-0.305c-0.073-0.017-0.129-0.076-0.142-0.149
							c-0.013-0.074,0.018-0.148,0.079-0.191c0.261-0.179,2.575-1.738,3.566-1.342c0.23,0.092,0.381,0.278,0.438,0.54
							c0.094,0.432,0.012,0.777-0.244,1.028C208.219,403.211,207.645,403.317,207.014,403.313z M205.371,402.736
							c1.454,0.299,2.526,0.262,2.908-0.114c0.159-0.155,0.204-0.377,0.139-0.677c-0.03-0.138-0.096-0.224-0.208-0.268
							C207.677,401.465,206.319,402.141,205.371,402.736z"/>
						<path style="fill:#407BFF;" d="M204.891,403.013c-0.029,0-0.059-0.007-0.087-0.022c-0.058-0.03-0.096-0.088-0.101-0.153
							c-0.007-0.099-0.175-2.441,0.652-3.227c0.223-0.212,0.494-0.299,0.806-0.259c0.374,0.047,0.617,0.253,0.684,0.578
							c0.182,0.889-1.043,2.579-1.856,3.057C204.958,403.004,204.924,403.013,204.891,403.013z M206.024,399.721
							c-0.158-0.001-0.292,0.053-0.408,0.164c-0.493,0.468-0.569,1.808-0.551,2.581c0.711-0.593,1.528-1.878,1.408-2.461
							c-0.022-0.111-0.084-0.243-0.36-0.278C206.082,399.724,206.053,399.722,206.024,399.721z"/>
					</g>
					<path style="fill:#FFC3BD;" d="M163.173,220.76c1.388,3.552,2.837,7.272,4.364,10.859c1.513,3.613,3.082,7.195,4.712,10.711
						c1.645,3.505,3.36,6.96,5.213,10.199c0.924,1.618,1.904,3.178,2.899,4.602c0.988,1.415,2.06,2.719,2.983,3.563l-1.432-0.849
						c-0.488-0.197-1.15-0.283-1.681-0.212c-0.55,0.073-0.885,0.224-1.065,0.328c-0.363,0.233-0.206,0.221-0.029,0.071
						c0.404-0.31,1.029-1.066,1.588-1.881c1.143-1.682,2.283-3.698,3.327-5.769c1.069-2.073,2.083-4.23,3.09-6.408
						c1.03-2.161,1.995-4.411,2.983-6.572l5.888,1.623c-0.342,2.557-0.843,4.988-1.373,7.474c-0.559,2.468-1.218,4.922-1.998,7.389
						c-0.817,2.462-1.687,4.932-3.011,7.49c-0.69,1.29-1.419,2.599-2.697,4.076c-0.666,0.733-1.442,1.549-2.907,2.328
						c-0.727,0.374-1.652,0.736-2.815,0.852c-1.141,0.125-2.422-0.055-3.482-0.474l-0.738-0.292l-0.694-0.558
						c-2.155-1.731-3.688-3.509-5.115-5.285c-1.419-1.776-2.621-3.583-3.776-5.39c-2.305-3.614-4.291-7.278-6.147-10.981
						c-1.867-3.695-3.561-7.436-5.173-11.204c-1.582-3.799-3.114-7.521-4.504-11.487L163.173,220.76z"/>
					<g>
						<path style="fill:#407BFF;" d="M160.656,215.904c8.96,4.601,12.436,20.345,12.436,20.345L155.35,248.1
							c-5.721-5.412-10.789-17.184-11.726-22.545C142.185,217.32,150.014,210.439,160.656,215.904z"/>
					</g>
					<path style="opacity:0.3;" d="M157.373,229.364c2.996,3.53,4.168,8.806,4.156,14.615l-6.175,4.116
						c-5.549-5.249-10.499-16.491-11.632-22.04C148.971,225.221,155.093,226.654,157.373,229.364z"/>
					<g>
						<polygon style="fill:#FFC3BD;" points="212.29,408.651 219.357,404.615 209.377,388.613 202.31,392.649 						"/>
						<path style="fill:#263238;" d="M218.547,402.799l-7.939,4.534c-0.289,0.165-0.392,0.49-0.248,0.782l3.202,6.501
							c0.332,0.674,1.296,0.942,1.955,0.55c2.737-1.626,3.964-2.543,7.456-4.537c2.148-1.227,9.561-5.165,12.527-6.859
							c2.901-1.657,1.206-4.578-0.202-4.126c-6.317,2.028-12.395,3.321-15.285,2.894
							C219.491,402.461,218.97,402.557,218.547,402.799z"/>
						<g>
							<polygon style="opacity:0.2;" points="202.311,392.654 209.381,388.616 214.785,397.29 207.716,401.328 							"/>
						</g>
						<g>
							<path style="fill:#407BFF;" d="M139.503,283.814c0,0,48.222,2.097,51.568,25.192c3.664,25.291,25.984,83.714,25.984,83.714
								l-12.943,7.392c0,0-36.533-54.72-38.506-80.829c-14.82,3.011-51.738,2.151-56.769-11.49
								c-4.116-11.16,0.887-23.563,0.887-23.563L139.503,283.814z"/>
							<path style="opacity:0.3;fill:#FFFFFF;" d="M139.503,283.814c0,0,48.222,2.097,51.568,25.192
								c3.664,25.291,25.984,83.714,25.984,83.714l-12.943,7.392c0,0-36.533-54.72-38.506-80.829
								c-14.82,3.011-51.738,2.151-56.769-11.49c-4.116-11.16,0.887-23.563,0.887-23.563L139.503,283.814z"/>
						</g>
						<polygon style="fill:#407BFF;" points="202.501,401.836 218.975,392.455 216.008,385.235 198.301,396.185 						"/>
						<path style="fill:#407BFF;" d="M221.755,402.599c-0.653,0.373-1.452,0.651-2.027,0.823c-0.072,0.022-0.149-0.001-0.198-0.058
							c-0.049-0.057-0.059-0.137-0.027-0.205c0.136-0.286,1.356-2.796,2.412-2.95c0.245-0.036,0.469,0.049,0.65,0.247
							c0.298,0.326,0.4,0.667,0.304,1.011C222.747,401.907,222.302,402.287,221.755,402.599z M220.044,402.924
							c1.408-0.47,2.316-1.041,2.459-1.557c0.059-0.214-0.012-0.428-0.219-0.655c-0.096-0.105-0.195-0.145-0.314-0.127
							C221.401,400.668,220.566,401.935,220.044,402.924z"/>
						<path style="fill:#407BFF;" d="M219.767,403.405c-0.026,0.015-0.055,0.024-0.086,0.025c-0.065,0.003-0.127-0.028-0.164-0.082
							c-0.056-0.082-1.376-2.024-1.055-3.118c0.086-0.295,0.278-0.506,0.567-0.629c0.348-0.147,0.661-0.091,0.882,0.158
							c0.603,0.678,0.392,2.754-0.073,3.576C219.821,403.364,219.796,403.388,219.767,403.405z M219.097,399.989
							c-0.137,0.078-0.226,0.192-0.271,0.347c-0.192,0.653,0.415,1.85,0.818,2.51c0.318-0.87,0.379-2.391-0.016-2.836
							c-0.075-0.085-0.195-0.168-0.451-0.06C219.148,399.962,219.122,399.975,219.097,399.989z"/>
					</g>
					<path style="fill:#FFC3BD;" d="M189.571,242.12l0.491-9.004l9.268,3.365c0,0-2.846,8.527-5.632,8.42L189.571,242.12z"/>
					<polygon style="fill:#FFC3BD;" points="196.341,227.201 202.121,231.711 199.33,236.481 190.062,233.116 					"/>
					<g>
						<path style="fill:#407BFF;" d="M113.067,212.278c0.809-2.156,4.549-4.286,6.852-4.268c0.479,0.004,0.988,0.011,1.52,0.022
							c2.651,0.054,5.964,0.208,9.172,0.589c5.521,0.657,13.486,1.812,18.242,3.054c2.76,0.729,5.422,1.654,7.538,2.441
							c2.699,1.03,4.264,1.788,4.264,1.788s-4.5,47.553-5.259,68.326h-45.673c-1.571-8.921-0.551-25.259-0.677-41.375
							C108.971,233.148,109.76,221.092,113.067,212.278z"/>
					</g>
					<path style="opacity:0.3;" d="M109.555,229.539c-0.418,4.581-0.535,9.161-0.503,13.314c0.01,1.948,0.01,3.896,0,5.844
						c2.686-3.692,4.377-7.567,4.399-11.334C113.472,235.051,111.899,232.086,109.555,229.539z"/>
					<path style="fill:#FFC3BD;" d="M121.986,224.725c-0.917,1.108-1.955,2.432-2.928,3.67c-0.982,1.263-1.944,2.547-2.878,3.846
						c-1.883,2.588-3.668,5.227-5.336,7.892c-1.649,2.672-3.153,5.388-4.401,8.103c-1.198,2.707-2.185,5.46-2.509,7.905l-0.034,0.23
						l-0.018,0.115c-0.004,0.02-0.018,0.129-0.009,0.031c0.007-0.212-0.02-0.44-0.076-0.704c-0.109-0.518-0.386-0.99-0.603-1.221
						c-0.224-0.241-0.304-0.273-0.324-0.265c0.011,0.018,0.095,0.096,0.259,0.186c0.657,0.387,2.036,0.792,3.418,1.058
						c2.839,0.541,6.051,0.85,9.262,1.004c3.227,0.184,6.512,0.24,9.813,0.265c3.295,0.049,6.644-0.01,9.92-0.041l0.78,6.058
						c-6.744,1.494-13.454,2.552-20.435,3.034c-3.498,0.195-7.021,0.34-10.833-0.062c-1.929-0.229-3.881-0.475-6.309-1.434
						c-0.605-0.244-1.263-0.566-1.954-1.008c-0.705-0.472-1.452-1.031-2.194-1.935c-0.736-0.89-1.396-2.131-1.672-3.472
						c-0.144-0.676-0.188-1.323-0.171-1.956l0.012-0.283l0.013-0.198l0.026-0.397c0.276-4.259,1.421-7.964,2.76-11.455
						c0.687-1.732,1.431-3.413,2.226-5.049c0.811-1.623,1.664-3.207,2.549-4.761c1.778-3.097,3.711-6.056,5.759-8.911
						c1.029-1.424,2.083-2.826,3.164-4.211c1.093-1.408,2.159-2.702,3.43-4.139L121.986,224.725z"/>
					<g>
						<path style="fill:#407BFF;" d="M119.121,208.015c6.934,0.255,12.568,5.492,8.159,15.791
							c-2.89,6.751-13.459,18.015-13.459,18.015l-14.318-13.968C104.736,217.549,111.913,207.75,119.121,208.015z"/>
					</g>
					<path style="fill:#FFC3BD;" d="M133.3,187.236l4.542,5.257l6.183,7.166c-0.373,0.936-0.701,1.891-0.942,2.825
						c-1.038,3.829-0.625,7.542,4.878,9.857c0,0,4.752,6.21-6.546,4.482c-11.298-1.728-13.005-7.634-13.005-7.634
						C133.412,205.674,133.699,193.831,133.3,187.236z"/>
					<path style="opacity:0.2;" d="M144.025,199.659c-0.373,0.936-0.701,1.891-0.942,2.825c-2.588-0.987-5.689-4.439-5.605-7.239
						c0.032-1.053,0.175-2.051,0.364-2.752L144.025,199.659z"/>
					<g>
						<path style="fill:#407BFF;" d="M158.729,182.363c0.994,4.284-1.179,8.449-4.853,9.301c-3.674,0.852-7.459-1.93-8.453-6.214
							c-0.994-4.284,1.179-8.449,4.853-9.301C153.951,175.296,157.735,178.078,158.729,182.363z"/>
						<path style="opacity:0.3;fill:#263238;" d="M158.729,182.363c0.994,4.284-1.179,8.449-4.853,9.301
							c-3.674,0.852-7.459-1.93-8.453-6.214c-0.994-4.284,1.179-8.449,4.853-9.301C153.951,175.296,157.735,178.078,158.729,182.363
							z"/>
					</g>
					<path style="fill:#FFC3BD;" d="M132.654,177.738c0.422,8.738,0.227,13.859,4.563,18.54c6.522,7.041,17.31,3.562,19.497-5.037
						c1.969-7.74,0.947-20.729-7.523-24.602C140.847,162.824,132.232,169,132.654,177.738z"/>
					<path style="fill:#263238;" d="M132.639,183.821c-1.62-4.174,10.814-0.476,5.62-11.892c5.194,2.616,11.645,2.2,13.497-0.178
						c3.68-4.726,2.609,8.033,7.551,2.319c1.903-2.2-1.856-3.746-1.356-10.286c0.404-5.274-7.372-10.465-12.849-5.351
						c-5.476,5.113-8.509,3.508-12.136,2.854c-3.627-0.654-6.153,4.005-3.655,6.919c-7.849,0.297-10.912,2.059-6.215,5.449
						c4.697,3.389,1.065,4.761,1.962,8.608C126.397,187.995,136.654,194.167,132.639,183.821z"/>
					<path style="fill:#FFC3BD;" d="M129.375,185.386c1.14,2.162,3.085,3.659,4.901,4.302c2.732,0.967,4.021-1.479,3.197-4.202
						c-0.741-2.451-3.056-5.907-5.767-5.697C129.035,179.996,128.071,182.914,129.375,185.386z"/>
					<g>
						<path style="fill:#407BFF;" d="M137.255,182.363c0.994,4.284-1.179,8.449-4.853,9.301c-3.674,0.852-7.459-1.93-8.453-6.214
							c-0.994-4.284,1.179-8.449,4.853-9.301C132.476,175.296,136.26,178.078,137.255,182.363z"/>
						<path style="fill:#407BFF;" d="M129.697,177.535c-0.442,0-0.856-0.277-1.011-0.718c-0.097-0.278-2.334-6.861,0.804-11.55
							c1.77-2.647,4.843-4.111,9.132-4.352c0.541-0.049,1.095,0.417,1.128,1.008c0.033,0.59-0.418,1.096-1.009,1.128
							c-3.581,0.202-6.095,1.347-7.473,3.405c-2.551,3.811-0.581,9.597-0.561,9.655c0.194,0.558-0.101,1.168-0.659,1.363
							C129.933,177.516,129.814,177.535,129.697,177.535z"/>
						<path style="opacity:0.1;fill:#263238;" d="M132.986,183.458c0.581,2.507-0.69,4.943-2.839,5.442
							c-2.15,0.499-4.364-1.129-4.945-3.636c-0.581-2.507,0.69-4.943,2.839-5.441S132.404,180.952,132.986,183.458z"/>
					</g>
					<path style="fill:#263238;" d="M146.965,180.926c-0.009,0.709,0.359,1.302,0.822,1.324s0.846-0.535,0.855-1.245
						c0.009-0.709-0.359-1.302-0.822-1.324C147.357,179.659,146.974,180.217,146.965,180.926z"/>
					<path style="fill:#263238;" d="M154.97,181.307c-0.009,0.71,0.359,1.302,0.822,1.324c0.463,0.022,0.846-0.535,0.855-1.245
						c0.009-0.71-0.359-1.302-0.822-1.324S154.98,180.597,154.97,181.307z"/>
					<path style="fill:#ED847E;" d="M152.532,181.184c0,0,1.086,3.631,2.453,5.48c-1.141,0.872-2.908,0.21-2.908,0.21
						L152.532,181.184z"/>
					<path style="fill:#263238;" d="M151.493,190.286c-2.792-0.081-4.303-1.867-4.371-1.95c-0.073-0.088-0.061-0.22,0.028-0.293
						c0.088-0.074,0.22-0.061,0.293,0.027c0.017,0.02,1.735,2.056,4.84,1.775c0.116-0.011,0.216,0.074,0.226,0.189
						c0.011,0.114-0.074,0.216-0.189,0.226C152.032,190.286,151.757,190.294,151.493,190.286z"/>
					<path style="fill:#263238;" d="M144.067,178.408c-0.066-0.018-0.128-0.053-0.18-0.105c-0.163-0.162-0.165-0.426-0.003-0.589
						c1.601-1.618,3.489-1.208,3.568-1.19c0.216,0.027,0.365,0.274,0.313,0.499c-0.051,0.224-0.274,0.364-0.498,0.313
						c-0.078-0.017-1.534-0.307-2.791,0.964C144.366,178.411,144.208,178.447,144.067,178.408z"/>
					<path style="fill:#263238;" d="M157.526,178.673c-0.133-0.003-0.262-0.07-0.34-0.19c-1.029-1.59-2.577-1.655-2.592-1.656
						c-0.23-0.007-0.411-0.199-0.404-0.428c0.007-0.229,0.197-0.409,0.426-0.404c0.001,0,0.002,0,0.002,0
						c0.082,0.003,2.004,0.082,3.266,2.036c0.125,0.193,0.07,0.451-0.123,0.576C157.689,178.654,157.607,178.675,157.526,178.673z"
						/>
					<path style="fill:#FFC3BD;" d="M133.909,256.907l7.196-2.146l-1.204,8.712c0,0-7.119,2.003-7.847-1.754L133.909,256.907z"/>
					<polygon style="fill:#FFC3BD;" points="149.447,257.667 147.24,263.746 139.902,263.473 141.105,254.761 					"/>
				</g>
			</g>
		</g>
	</g>
</g>
<g id="Table">
	<g>
		<g>
			<g>
				<path style="fill:#263238;" d="M258.089,412.62h5.237c0.933,0,1.854,0.346,2.689,1.01l3.104,2.468
					c0.268,0.214,0.173,0.858-0.127,0.858h-16.57c-0.3,0-0.395-0.645-0.127-0.858l3.104-2.468
					C256.235,412.966,257.156,412.62,258.089,412.62z"/>
				
					<rect x="189.693" y="340.794" transform="matrix(-1.836970e-16 1 -1 -1.836970e-16 603.7985 82.3801)" style="fill:#263238;" width="142.033" height="4.591"/>
				
					<rect x="259.038" y="271.449" transform="matrix(-1.836970e-16 1 -1 -1.836970e-16 534.4537 13.0352)" style="opacity:0.3;" width="3.343" height="4.591"/>
			</g>
			<g>
				
					<rect x="134.746" y="269.049" transform="matrix(-1 -1.224647e-16 1.224647e-16 -1 521.4195 542.2231)" style="fill:#263238;" width="251.927" height="4.125"/>
				
					<rect x="298.116" y="269.049" transform="matrix(-1 -1.224647e-16 1.224647e-16 -1 684.7888 542.2231)" style="opacity:0.8;" width="88.558" height="4.125"/>
			</g>
		</g>
		<g>
			<path style="fill:#407BFF;" d="M201.397,249.095L201.397,249.095c-2.116,2.116-5.578,2.116-7.694,0l-10.989-10.989
				c-2.116-2.116-2.116-5.578,0-7.694l0,0c2.116-2.116,5.578-2.116,7.694,0l10.989,10.989
				C203.513,243.517,203.513,246.98,201.397,249.095z"/>
			<path style="fill:#407BFF;" d="M200.275,257.491v-1.07c1.905,0,3.455-1.55,3.455-3.456v-5.285h1.07v5.285
				C204.801,255.46,202.77,257.491,200.275,257.491z"/>
			<path style="fill:#263238;" d="M188.227,245.266l6.671,6.671c2.569,2.569,6.773,2.569,9.341,0c2.569-2.569,2.569-6.772,0-9.341
				l-6.671-6.671L188.227,245.266z"/>
			<path style="opacity:0.6;fill:#407BFF;" d="M197.697,247.68c0,1.527-1.021,2.765-2.281,2.765c-1.26,0-2.281-1.238-2.281-2.765
				c0-1.527,1.021-2.765,2.281-2.765C196.676,244.915,197.697,246.153,197.697,247.68z"/>
			<path style="fill:#407BFF;" d="M197.132,247.68c0,1.527-1.021,2.765-2.281,2.765c-1.26,0-2.281-1.238-2.281-2.765
				c0-1.527,1.021-2.765,2.281-2.765C196.111,244.915,197.132,246.153,197.132,247.68z"/>
			<path style="fill:#407BFF;" d="M200.811,267.747h-1.07v-10.256h-0.898c-2.496,0-4.526-2.03-4.526-4.526v-5.285h1.07v5.285
				c0,1.905,1.551,3.456,3.456,3.456h1.969V267.747z"/>
			<polygon style="fill:#407BFF;" points="205.106,269.049 195.444,269.049 196.961,267.236 203.589,267.236 			"/>
		</g>
		<g>
			<path style="fill:#407BFF;" d="M319.187,249.095L319.187,249.095c2.116,2.116,5.578,2.116,7.694,0l10.989-10.989
				c2.116-2.116,2.116-5.578,0-7.694h0c-2.116-2.116-5.578-2.116-7.694,0l-10.989,10.989
				C317.072,243.517,317.072,246.98,319.187,249.095z"/>
			<path style="fill:#407BFF;" d="M323.767,257.491v-1.07c1.905,0,3.456-1.55,3.456-3.456v-5.285h1.07v5.285
				C328.293,255.46,326.263,257.491,323.767,257.491z"/>
			<path style="fill:#263238;" d="M332.358,245.266l-6.671,6.671c-2.569,2.569-6.773,2.569-9.341,0
				c-2.569-2.569-2.569-6.772,0-9.341l6.671-6.671L332.358,245.266z"/>
			<path style="opacity:0.6;fill:#407BFF;" d="M321.189,247.68c0,1.527-1.021,2.765-2.281,2.765c-1.26,0-2.281-1.238-2.281-2.765
				c0-1.527,1.021-2.765,2.281-2.765C320.167,244.915,321.189,246.153,321.189,247.68z"/>
			<path style="fill:#407BFF;" d="M320.624,247.68c0,1.527-1.021,2.765-2.281,2.765s-2.281-1.238-2.281-2.765
				c0-1.527,1.021-2.765,2.281-2.765S320.624,246.153,320.624,247.68z"/>
			<path style="fill:#407BFF;" d="M324.302,267.747h-1.07v-10.256h-0.898c-2.495,0-4.525-2.03-4.525-4.526v-5.285h1.07v5.285
				c0,1.905,1.55,3.456,3.455,3.456h1.969V267.747z"/>
			<polygon style="fill:#407BFF;" points="328.598,269.049 318.936,269.049 320.453,267.236 327.081,267.236 			"/>
		</g>
		<g>
			<g>
				<path style="fill:#407BFF;" d="M270.359,266.82h-97.19c-1.226,0-2.229,1.003-2.229,2.229h101.649
					C272.589,267.823,271.586,266.82,270.359,266.82z"/>
				<path style="opacity:0.2;" d="M270.359,266.82h-97.19c-1.226,0-2.229,1.003-2.229,2.229h101.649
					C272.589,267.823,271.586,266.82,270.359,266.82z"/>
			</g>
			<path style="opacity:0.1;" d="M201.528,266.82h-28.36c-1.226,0-2.229,1.003-2.229,2.229h32.819
				C203.758,267.823,202.755,266.82,201.528,266.82z"/>
			<g>
				<path style="fill:#407BFF;" d="M279.435,217.126h-68.032c-2.174,0-4.262,1.779-4.64,3.953l-7.266,41.788
					c-0.378,2.174,1.091,3.953,3.266,3.953h68.032c2.174,0,4.262-1.779,4.64-3.953l7.266-41.788
					C283.078,218.905,281.609,217.126,279.435,217.126z"/>
				<path style="opacity:0.2;" d="M279.435,217.126h-68.032c-2.174,0-4.262,1.779-4.64,3.953l-7.266,41.788
					c-0.378,2.174,1.091,3.953,3.266,3.953h68.032c2.174,0,4.262-1.779,4.64-3.953l7.266-41.788
					C283.078,218.905,281.609,217.126,279.435,217.126z"/>
			</g>
			<path style="opacity:0.1;" d="M201.515,264.941l7.85-45.183c0.158-0.91-1.027-1.511-1.604-0.808
				c-0.505,0.615-0.865,1.347-1.004,2.133l-7.258,41.787c-0.153,0.853-0.016,1.648,0.341,2.297
				C200.253,265.92,201.373,265.76,201.515,264.941z"/>
			<path style="opacity:0.9;fill:#407BFF;" d="M250.023,241.974c-0.545,5.204-4.15,9.422-8.052,9.421s-6.623-4.219-6.077-9.423
				c0.545-5.204,4.15-9.422,8.052-9.421C247.848,232.551,250.568,236.77,250.023,241.974z"/>
		</g>
	</g>
</g>
<g id="Character_2">
	<g>
		<g>
			<g>
				<path style="fill:#FFB573;" d="M411.649,227.329c1.021,1.341,1.878,2.524,2.748,3.816c0.862,1.269,1.7,2.548,2.521,3.841
					c1.65,2.58,3.16,5.255,4.605,7.986c2.827,5.497,5.337,11.271,6.792,17.761c0.337,1.637,0.614,3.312,0.765,5.053
					c0.192,2.227-0.11,4.278-0.57,6.06c-0.939,3.589-2.429,6.522-4.064,9.271c-3.314,5.472-7.203,10.075-11.669,14.378l-4.584-3.86
					l2.17-3.639c0.711-1.234,1.391-2.484,2.071-3.718c1.336-2.483,2.586-4.979,3.624-7.459c1.024-2.467,1.878-4.972,2.165-7.129
					c0.132-1.082,0.153-1.988-0.004-2.681c-0.188-1.172-0.474-2.38-0.812-3.595c-1.423-4.899-3.808-9.892-6.505-14.722
					c-1.339-2.43-2.808-4.812-4.289-7.191c-0.748-1.185-1.515-2.36-2.298-3.518c-0.777-1.134-1.599-2.357-2.325-3.37
					L411.649,227.329z"/>
				<path style="fill:#FFB573;" d="M409.27,290.168l-5.906,2.118l7.011,8.214c0,0,3.887-2.785,3.955-6.88L409.27,290.168z"/>
				<polygon style="fill:#FFB573;" points="397.362,296.715 403.474,303.233 410.375,300.5 403.364,292.286 				"/>
				<path style="fill:#263238;" d="M369.663,192.096c0.103,0.674-0.171,1.275-0.612,1.342c-0.441,0.067-0.881-0.425-0.984-1.099
					c-0.103-0.674,0.171-1.275,0.612-1.342C369.119,190.93,369.56,191.422,369.663,192.096z"/>
				<path style="fill:#ED893E;" d="M369.553,193.362c0,0-0.94,4.123-2.341,6.257c1.362,0.931,3.313,0.114,3.313,0.114
					L369.553,193.362z"/>
				<path style="fill:#263238;" d="M371.482,187.996c-0.08,0.012-0.165,0-0.243-0.04c-1.573-0.805-2.841-0.117-2.894-0.087
					c-0.193,0.108-0.436,0.04-0.545-0.152c-0.109-0.192-0.042-0.435,0.149-0.545c0.068-0.039,1.683-0.939,3.655,0.07
					c0.197,0.101,0.275,0.342,0.174,0.539C371.718,187.902,371.605,187.977,371.482,187.996z"/>
				<path style="fill:#FFB573;" d="M391.965,197.734c-1.212,6.185-2.423,17.518,1.905,21.645c0,0-1.691,6.274-13.183,6.274
					c-12.637,0-6.039-6.273-6.039-6.273c6.897-1.647,6.719-6.764,5.518-11.57L391.965,197.734z"/>
				<path style="fill:#407BFF;" d="M395.525,222.046c0.906-2.358,1.903-5.056-0.16-5.901c-2.27-0.93-14.693-1.878-18.977-0.133
					c-4.284,1.746-3.069,6.527-3.069,6.527L395.525,222.046z"/>
				<path style="fill:#FFB573;" d="M363.034,237.371c-1.445,3.425-3.006,6.585-4.626,9.825c-1.645,3.206-3.373,6.382-5.268,9.503
					c-1.887,3.129-3.901,6.214-6.242,9.231c-1.171,1.508-2.398,3.016-3.848,4.476c-1.458,1.458-3.038,2.922-5.281,4.25l-2.008,1.189
					l-1.949-0.524c-2.146-0.577-3.887-1.552-5.371-2.597c-1.494-1.045-2.723-2.235-3.839-3.44c-1.103-1.224-2.066-2.496-2.929-3.816
					c-0.864-1.346-1.595-2.635-2.276-4.191l4.907-3.44c0.985,0.748,2.073,1.65,3.116,2.413c1.054,0.779,2.102,1.526,3.149,2.161
					c1.029,0.659,2.078,1.19,3.032,1.595c0.957,0.408,1.85,0.595,2.484,0.633l-3.957,0.664c0.742-0.522,1.742-1.478,2.675-2.571
					c0.944-1.1,1.898-2.342,2.804-3.655c1.818-2.626,3.53-5.488,5.177-8.409c1.633-2.934,3.214-5.939,4.743-8.981
					c1.54-3.014,3.017-6.173,4.416-9.152L363.034,237.371z"/>
				<path style="fill:#263238;" d="M409.007,221.29c7.924,1.816,17.012,23.42,17.012,23.42l-15.915,10.908
					c0,0-6.029-8.434-10.511-17.871C394.895,227.86,400.905,219.433,409.007,221.29z"/>
				<path style="opacity:0.2;" d="M403.329,235.066l7.526,20.035l-0.748,0.518c0,0-3.257-4.569-6.779-10.737V235.066z"/>
				<path style="fill:#263238;" d="M361.642,221.726c0,0-8.004,11.159,0.494,74.07c13.625,0,38.59,0,45.22,0
					c0.311-6.942-5.045-41.799,1.65-74.506c0,0-7.751-1.556-15.138-1.912c-5.778-0.278-14.143-0.463-19.223,0.001
					C367.95,219.99,361.642,221.726,361.642,221.726z"/>
				<path style="opacity:0.2;" d="M366.663,239.914c-0.149,0.184-1.14,10.392-8.93,19.357c-0.184-4.051-0.254-7.687-0.242-10.944
					L366.663,239.914z"/>
				<path style="fill:#263238;" d="M370.562,228.58c1.115,8.006-14.658,28.456-14.658,28.456l-15.85-10.909
					c0,0,4.393-11.271,11.797-18.656C360.303,219.04,369.349,219.867,370.562,228.58z"/>
				<path style="fill:#FFB573;" d="M320.68,262.765l-6.261-5.052l5.645-6.494c0,0,5.025,2.35,5.092,8.506L320.68,262.765z"/>
				<polygon style="fill:#FFB573;" points="311.382,254.24 315.21,247.68 320.064,251.219 314.419,257.713 				"/>
				<path style="fill:#FFB573;" d="M391.93,187.239c0.754,8.357,1.62,13.21-1.914,18.097c-5.315,7.351-16.113,5.118-19.349-2.846
					c-2.912-7.168-3.656-19.63,3.946-24.16C382.103,173.867,391.176,178.882,391.93,187.239z"/>
				<path style="fill:#407BFF;" d="M399.297,195.085c-1.404,4.168-5.44,6.571-9.014,5.367c-3.574-1.204-5.334-5.559-3.93-9.727
					c1.404-4.168,5.44-6.571,9.015-5.367C398.942,186.562,400.702,190.917,399.297,195.085z"/>
				<path style="fill:#263238;" d="M374.372,191.967c-2.854-2.616-2.557-7.135-1.903-8.622c-3.032-0.535-12.427-1.308-4.222-10.524
					c8.205-9.216,11.654,0.297,11.654,0.297s12.477-4.743,13.968,3.545c7.854-2.058,7.854,17.325-3.919,26.601
					C380.318,196.545,372.588,195.772,374.372,191.967z"/>
				<path style="fill:#FFB573;" d="M379.569,190.777c-0.026,2.198-0.946,4.308-2.105,5.715c-1.744,2.116-3.725,0.945-4.17-1.51
					c-0.4-2.21,0.026-5.973,2.224-7.199C377.683,186.575,379.599,188.264,379.569,190.777z"/>
				<g>
					<path style="fill:#407BFF;" d="M382.634,192.339c0.651,4.35-1.844,8.329-5.574,8.887c-3.73,0.559-7.282-2.514-7.934-6.864
						c-0.652-4.35,1.844-8.329,5.574-8.887C378.43,184.916,381.982,187.99,382.634,192.339z"/>
					<path style="fill:#407BFF;" d="M375.566,186.932c-0.475,0-0.908-0.318-1.034-0.799c-0.075-0.285-1.784-7.025,1.715-11.45
						c1.977-2.497,5.167-3.71,9.448-3.614c0.592,0.014,1.06,0.504,1.046,1.095c-0.014,0.59-0.52,1.097-1.095,1.045
						c-3.573-0.084-6.183,0.86-7.72,2.803c-2.845,3.597-1.34,9.521-1.324,9.58c0.15,0.572-0.192,1.157-0.765,1.307
						C375.747,186.92,375.656,186.932,375.566,186.932z"/>
					<path style="opacity:0.1;fill:#263238;" d="M378.291,193.094c0.381,2.545-1.079,4.873-3.261,5.2
						c-2.182,0.327-4.26-1.471-4.642-4.016c-0.381-2.545,1.079-4.873,3.261-5.2C375.832,188.751,377.91,190.549,378.291,193.094z"/>
				</g>
				<g>
					<path style="fill:#407BFF;" d="M309.878,407.355c-1.085,0-2.132-0.15-2.483-0.637c-0.123-0.171-0.22-0.461,0.016-0.875
						c0.133-0.232,0.346-0.389,0.635-0.468c1.406-0.383,4.362,1.301,4.487,1.373c0.072,0.042,0.111,0.124,0.098,0.206
						c-0.014,0.082-0.077,0.147-0.159,0.163C311.933,407.224,310.889,407.355,309.878,407.355z M308.538,405.715
						c-0.141,0-0.271,0.015-0.387,0.046c-0.185,0.05-0.313,0.142-0.392,0.28c-0.142,0.248-0.091,0.372-0.039,0.443
						c0.394,0.546,2.532,0.558,4.103,0.337C311.038,406.418,309.526,405.715,308.538,405.715z"/>
					<path style="fill:#407BFF;" d="M312.433,407.12c-0.028,0-0.056-0.006-0.082-0.017c-1.02-0.458-3.042-2.286-2.887-3.242
						c0.036-0.224,0.195-0.504,0.746-0.56c0.408-0.038,0.783,0.075,1.111,0.344c1.075,0.883,1.303,3.16,1.312,3.256
						c0.007,0.071-0.025,0.14-0.083,0.182C312.515,407.108,312.474,407.12,312.433,407.12z M310.37,403.693
						c-0.039,0-0.079,0.002-0.12,0.007c-0.36,0.036-0.383,0.178-0.391,0.225c-0.093,0.574,1.281,2.01,2.322,2.636
						c-0.109-0.665-0.41-2.027-1.116-2.607C310.853,403.779,310.624,403.693,310.37,403.693z"/>
					<polygon style="fill:#FFB573;" points="322.544,406.921 314.089,406.921 311.619,387.342 320.074,387.342 					"/>
					<path style="fill:#263238;" d="M313.331,405.942h9.233c0.346,0,0.645,0.24,0.72,0.577l1.67,7.515
						c0.173,0.779-0.418,1.517-1.216,1.504c-3.331-0.057-8.143-0.252-12.329-0.252c-4.895,0-9.122,0.267-14.862,0.267
						c-3.471,0-4.434-3.509-2.981-3.827c6.614-1.447,12.014-1.602,17.73-5.126C311.915,406.217,312.601,405.942,313.331,405.942z"/>
					<polygon style="opacity:0.2;" points="311.621,387.347 312.893,397.439 321.351,397.439 320.079,387.347 					"/>
				</g>
				<path style="fill:#407BFF;" d="M343.764,407.354c-0.867,0-1.706-0.133-2.032-0.559c-0.137-0.179-0.247-0.489,0.007-0.95
					c0.133-0.242,0.345-0.399,0.629-0.466c1.231-0.29,3.569,1.309,3.668,1.377c0.065,0.045,0.098,0.124,0.083,0.201
					c-0.015,0.077-0.073,0.139-0.15,0.158C345.535,407.219,344.635,407.354,343.764,407.354z M342.706,405.742
					c-0.088,0-0.171,0.008-0.246,0.026c-0.171,0.04-0.292,0.129-0.37,0.27c-0.181,0.329-0.075,0.468-0.04,0.514
					c0.362,0.473,2.087,0.482,3.351,0.269C344.673,406.373,343.474,405.742,342.706,405.742z"/>
				<path style="fill:#407BFF;" d="M345.922,407.12c-0.033,0-0.066-0.008-0.095-0.024c-0.875-0.475-2.566-2.327-2.387-3.27
					c0.032-0.17,0.158-0.466,0.637-0.525c0.31-0.037,0.597,0.048,0.853,0.257c0.982,0.802,1.185,3.242,1.192,3.346
					c0.006,0.073-0.029,0.144-0.09,0.184C345.998,407.11,345.96,407.12,345.922,407.12z M344.215,403.694
					c-0.03,0-0.06,0.002-0.09,0.006c-0.26,0.032-0.283,0.151-0.293,0.202c-0.106,0.557,0.972,1.957,1.841,2.617
					c-0.099-0.712-0.369-2.135-0.998-2.649C344.531,403.752,344.38,403.694,344.215,403.694z"/>
				<polygon style="fill:#FFB573;" points="355.608,406.921 347.153,406.921 342.904,387.342 351.358,387.342 				"/>
				<path style="fill:#263238;" d="M346.553,405.942h9.498c0.346,0,0.645,0.24,0.72,0.577l1.67,7.515
					c0.173,0.779-0.44,1.517-1.238,1.504c-3.316-0.057-4.927-0.252-9.104-0.252c-2.57,0-5.868,0.267-9.416,0.267
					c-3.471,0-4.012-3.509-2.559-3.827c6.514-1.425,6.971-3.39,9.057-5.265C345.556,406.123,346.047,405.942,346.553,405.942z"/>
				<g style="opacity:0.2;">
					<polygon points="351.361,387.347 342.903,387.347 345.098,397.439 353.556,397.439 					"/>
				</g>
				<g>
					<path style="fill:#407BFF;" d="M362.136,295.796c0,0-64.337,5.706-63.643,38.016c0.722,33.608,11.535,59.332,11.535,59.332
						h12.562c0,0-0.64-20.491-0.218-53.578c0.126-9.913,20.156-13.188,39.717-14.344c16.897-0.999,32.714-10.63,39.278-26.232
						l1.344-3.194H362.136z"/>
					<path style="opacity:0.4;" d="M362.136,295.796c0,0-64.337,5.706-63.643,38.016c0.722,33.608,11.535,59.332,11.535,59.332
						h12.562c0,0-0.64-20.491-0.218-53.578c0.126-9.913,20.156-13.188,39.717-14.344c16.897-0.999,32.714-10.63,39.278-26.232
						l1.344-3.194H362.136z"/>
				</g>
				<path style="fill:#263238;" d="M306.961,389.78c-0.066,0,0.808,5.946,0.808,5.946h17.422l0.471-5.307L306.961,389.78z"/>
				<g>
					<path style="fill:#407BFF;" d="M375.689,295.796c0,0-46.907,14.234-48.064,33.075c-2.132,34.698,14.888,64.274,14.888,64.274
						h12.682c0,0-4.816-14.663-6.544-46.098c-2.171-39.499,72.512,0.925,58.706-51.251H375.689z"/>
					<path style="opacity:0.4;" d="M375.689,295.796c0,0-46.907,14.234-48.064,33.075c-2.132,34.698,14.888,64.274,14.888,64.274
						h12.682c0,0-4.816-14.663-6.544-46.098c-2.171-39.499,72.512,0.925,58.706-51.251H375.689z"/>
				</g>
				<path style="fill:#263238;" d="M338.685,389.78c-0.066,0,1.599,5.946,1.599,5.946h17.422l-0.32-5.307L338.685,389.78z"/>
			</g>
		</g>
		<g>
			<g>
				<path style="fill:#407BFF;" d="M408.763,321.805c1.827,0,3.284,1.525,3.201,3.35l-0.126,2.768
					c-0.375,2.44-2.644,4.42-5.084,4.42h-0.931l-0.92,3.072c-0.621,2.044-2.504,3.446-4.634,3.446h-77.38
					c0-2.997,1.316-5.662,3.393-7.492c-0.011-0.075-0.043-0.15-0.053-0.225l-0.427-4.971c-0.202-2.35,1.651-4.368,4.009-4.368
					H408.763z"/>
				<path style="opacity:0.5;fill:#FFFFFF;" d="M408.763,321.805c1.827,0,3.284,1.525,3.201,3.35l-0.126,2.768
					c-0.375,2.44-2.644,4.42-5.084,4.42h-0.931l-0.92,3.072c-0.621,2.044-2.504,3.446-4.634,3.446h-77.38
					c0-2.997,1.316-5.662,3.393-7.492c-0.011-0.075-0.043-0.15-0.053-0.225l-0.427-4.971c-0.202-2.35,1.651-4.368,4.009-4.368
					H408.763z"/>
			</g>
			<g>
				<g>
					<polygon style="fill:#407BFF;" points="377.061,417.571 380.461,417.571 375.809,338.856 372.409,338.856 					"/>
					<polygon style="opacity:0.5;fill:#FFFFFF;" points="377.061,417.571 380.461,417.571 375.809,338.856 372.409,338.856 					"/>
				</g>
				<g>
					<polygon style="fill:#407BFF;" points="326.492,417.571 323.092,417.571 327.744,338.856 331.144,338.856 					"/>
					<polygon style="opacity:0.5;fill:#FFFFFF;" points="326.492,417.571 323.092,417.571 327.744,338.856 331.144,338.856 					"/>
				</g>
				<g>
					<polygon style="fill:#407BFF;" points="398.337,417.571 401.737,417.571 397.085,338.856 393.685,338.856 					"/>
					<polygon style="opacity:0.5;fill:#FFFFFF;" points="398.337,417.571 401.737,417.571 397.085,338.856 393.685,338.856 					"/>
				</g>
				<g>
					<polygon style="fill:#407BFF;" points="347.767,417.571 344.367,417.571 349.02,338.856 352.42,338.856 					"/>
					<polygon style="opacity:0.5;fill:#FFFFFF;" points="347.767,417.571 344.367,417.571 349.02,338.856 352.42,338.856 					"/>
				</g>
			</g>
		</g>
	</g>
</g>
</svg>
